# xmcd CD database file generated by RipIT.
#
# Track frame offsets:
# 150
# 12170
# 29421
# 46098
# 57070
# 69886
# 88609
# 100090
# 107584
# 122190
# 139941
#
# Disc length: 2088 seconds
#
# Revision: 2
# Processed by: cddbd v1.5.1PL2 Copyright (c) Steve Scherf et al.
# Submitted via: RipIT 3.4 www.suwald.com/ripit/ripit.html at Tue Jan 3 11:36:14 CET 2006.
#
DISCID=8608260b
DTITLE=Enya - A Day Without Rain
DYEAR=2000
DGENRE=Celtic
TTITLE0=A Day Without Rain
TTITLE1=Wild Child
TTITLE2=Only Time
TTITLE3=Tempus Vernum
TTITLE4=Deora Ar Mo Chroí
TTITLE5=Flora's Secret
TTITLE6=Fallen Embers
TTITLE7=Silver Inches
TTITLE8=Pilgrim
TTITLE9=One By One
TTITLE10=Lazy Days
EXTD=ID3G: 88 YEAR: 2000
EXTT0=
EXTT1=
EXTT2=
EXTT3=
EXTT4=
EXTT5=
EXTT6=
EXTT7=
EXTT8=
EXTT9=
EXTT10=
PLAYORDER=
